# xmcd CD database file
#
# Track frame offsets:
#	150
#	14225
#	45442
#	66687
#	88915
#	121417
#	135787
#	146680
#	160760
#	181612
#	197312
#	210307
#	229455
#
# Disc length: 3382 seconds
#
# Revision: 1
# Processed by: cddbd v1.5.1PL0 Copyright (c) Steve Scherf et al.
# Submitted via: CDex 1.51
#
DISCID=b20d340d
DTITLE=Miles Davis - Special Guest Is...Miles
DYEAR=2005
DGENRE=Jazz
TTITLE0=Don't Stop Me Now - Toto
TTITLE1=Sticky Wicked - Chaka Khan
TTITLE2=In The Night - Cameo
TTITLE3=Big 'Ol Head - Kenny Garrett
TTITLE4=You Won't Forget Me - Shirley Horn
TTITLE5=Coming To Town (Music from The Hot Spot)
TTITLE6=Empty Bank (Music from The Hot Spot)
TTITLE7=Sawmill (Music from The Hot Spot)
TTITLE8=Bank Robbery (Music from The Hot Spot)
TTITLE9=Gloria's Story (Music from The Hot Spot)
TTITLE10=Harry And Dolly (Music from The Hot Spot)
TTITLE11=Murder (Music from The Hot Spot)
TTITLE12=End Credits (Music from The Hot Spot)
EXTD=YEAR: 2005
EXTT0=
EXTT1=
EXTT2=
EXTT3=
EXTT4=
EXTT5=
EXTT6=
EXTT7=
EXTT8=
EXTT9=
EXTT10=
EXTT11=
EXTT12=
PLAYORDER=
